<?xml version="1.0" standalone="no"?>
<!DOCTYPE svg PUBLIC "-//W3C//DTD SVG 20010904//EN"
 "http://www.w3.org/TR/2001/REC-SVG-20010904/DTD/svg10.dtd">
<svg version="1.0" xmlns="http://www.w3.org/2000/svg"
 width="750.000000pt" height="726.000000pt" viewBox="0 0 750.000000 726.000000"
 preserveAspectRatio="xMidYMid meet">
<metadata>
Created by potrace 1.14, written by Peter Selinger 2001-2017
</metadata>
<g transform="translate(0.000000,726.000000) scale(0.100000,-0.100000)"
fill="#000000" stroke="none">
<path d="M5875 7209 c-54 -9 -284 -41 -485 -65 -69 -9 -255 -20 -415 -25 -557
-18 -720 -27 -790 -43 -94 -21 -312 -21 -339 -1 -11 9 -42 15 -70 15 -28 0
-82 7 -121 15 -58 12 -182 15 -705 15 -540 0 -639 2 -656 15 -17 11 -76 15
-295 18 -237 2 -299 7 -458 31 l-185 27 -470 -6 c-712 -9 -743 -10 -761 -25
-17 -14 -21 -50 -5 -50 6 0 11 -134 13 -357 3 -348 3 -360 28 -448 14 -49 42
-128 62 -175 l37 -86 0 -244 c0 -260 -9 -361 -37 -413 -16 -30 -17 -114 -18
-1157 -1 -853 -4 -1132 -13 -1153 -9 -21 -12 -275 -12 -1045 0 -1010 -5 -1205
-34 -1262 -7 -14 -19 -61 -25 -105 -7 -44 -14 -89 -16 -100 -5 -32 -40 -122
-53 -138 -7 -8 -15 -62 -19 -120 l-6 -106 27 -11 c15 -5 80 -10 145 -10 66 0
121 -4 127 -10 10 -10 423 -8 1014 5 138 3 254 2 265 -3 48 -22 235 -47 345
-46 155 2 241 18 391 76 81 30 91 32 262 36 177 4 177 4 230 -23 28 -15 61
-36 73 -46 11 -10 30 -19 41 -19 11 0 37 -7 56 -15 54 -22 469 -21 580 1 112
23 559 17 597 -8 21 -13 68 -17 280 -20 239 -4 258 -6 308 -28 49 -21 62 -22
210 -18 121 3 163 8 182 20 14 9 43 20 65 24 22 3 63 15 90 25 28 10 68 23 90
28 22 6 82 22 134 36 91 24 102 25 407 25 210 0 322 -4 341 -11 15 -7 56 -25
91 -40 35 -16 71 -29 81 -29 10 0 34 -6 53 -14 19 -8 59 -18 89 -22 30 -4 65
-12 79 -19 45 -22 221 -38 364 -33 120 5 142 8 189 32 30 14 58 26 64 26 5 0
25 15 44 32 l36 33 6 349 c4 192 7 420 7 506 0 111 4 160 13 169 18 18 11 762
-9 846 -7 33 -14 91 -14 128 0 38 -5 98 -10 135 -30 191 -30 1090 0 1369 6 51
10 205 10 344 0 270 1 274 57 358 l23 34 0 418 c0 330 -3 427 -14 461 -8 24
-17 63 -20 88 -4 25 -15 68 -26 95 -10 28 -31 109 -45 180 -15 72 -33 146 -41
165 -65 174 -72 242 -38 348 21 63 20 706 -1 742 -8 14 -14 34 -15 44 0 26
-59 81 -95 90 -68 16 -135 26 -220 32 -65 5 -97 12 -114 25 -13 11 -32 19 -43
19 -10 0 -31 6 -46 13 -15 8 -61 19 -102 26 -41 7 -84 18 -95 24 -25 15 -596
20 -670 6z m600 -39 c142 -25 248 -49 258 -59 6 -6 21 -11 33 -11 12 0 33 -9
47 -20 19 -15 40 -20 86 -20 69 0 198 -18 223 -31 10 -5 25 -9 33 -9 23 0 56
-35 74 -77 13 -31 16 -98 18 -363 3 -215 0 -340 -8 -370 -36 -146 -35 -153 14
-310 25 -80 55 -192 67 -250 12 -58 33 -137 46 -177 13 -39 24 -82 24 -96 0
-13 7 -44 15 -67 12 -35 15 -114 15 -455 0 -387 -1 -414 -19 -436 -55 -72 -56
-73 -63 -399 -3 -168 -12 -417 -19 -555 -15 -293 -15 -766 -1 -980 21 -299 31
-411 41 -445 12 -46 21 -744 9 -786 -5 -18 -11 -154 -13 -301 -7 -430 -19
-741 -30 -752 -5 -5 -41 -26 -78 -46 -67 -36 -71 -37 -208 -42 -144 -6 -282 6
-349 32 -19 7 -60 16 -90 20 -30 4 -67 14 -82 21 -15 8 -37 14 -49 14 -18 0
-60 18 -161 71 -10 5 -169 9 -353 9 -262 0 -347 -3 -383 -14 -99 -30 -270 -78
-340 -96 -41 -10 -80 -24 -88 -31 -10 -8 -68 -14 -162 -17 -134 -4 -152 -2
-207 18 -55 20 -83 23 -310 27 -208 4 -254 8 -275 21 -39 25 -487 31 -613 7
-74 -13 -138 -16 -322 -13 -223 3 -261 8 -315 39 -8 5 -26 15 -40 21 -14 7
-41 23 -60 36 -34 23 -39 24 -225 20 -183 -4 -193 -5 -275 -36 -249 -91 -464
-101 -710 -31 -22 6 -132 8 -290 4 -376 -8 -965 -7 -1125 2 l-140 8 2 84 c2
46 7 89 12 95 15 19 52 129 55 166 5 53 26 151 41 185 30 68 35 254 35 1266 0
747 3 1023 12 1049 8 26 12 330 12 1155 1 1039 3 1122 19 1152 9 17 21 62 27
100 12 84 13 613 1 613 -10 0 -67 131 -77 175 -3 17 -15 59 -25 94 -17 57 -19
99 -19 416 l0 354 128 5 c70 3 339 9 598 12 466 5 472 5 652 -20 156 -22 217
-26 435 -26 239 0 256 -1 280 -20 25 -20 40 -20 679 -20 535 0 664 -3 713 -15
33 -8 83 -15 110 -15 28 0 59 -7 69 -15 28 -21 245 -20 351 2 80 16 222 23
800 42 165 5 327 14 360 20 33 6 105 16 160 21 55 6 170 21 255 34 131 20 194
24 410 24 140 0 278 -3 305 -8z"/>
</g>
</svg>
