<?xml version="1.0" standalone="no"?>
<!DOCTYPE svg PUBLIC "-//W3C//DTD SVG 20010904//EN"
 "http://www.w3.org/TR/2001/REC-SVG-20010904/DTD/svg10.dtd">
<svg version="1.0" xmlns="http://www.w3.org/2000/svg"
 width="950.000000pt" height="920.000000pt" viewBox="0 0 950.000000 920.000000"
 preserveAspectRatio="xMidYMid meet">
<metadata>
Created by potrace 1.14, written by Peter Selinger 2001-2017
</metadata>
<g transform="translate(0.000000,920.000000) scale(0.100000,-0.100000)"
fill="#000000" stroke="none">
<path d="M7465 9140 c-22 -5 -96 -16 -165 -25 -69 -9 -147 -20 -175 -26 -27
-5 -104 -14 -170 -20 -221 -18 -240 -21 -253 -32 -9 -7 -144 -14 -390 -19
-769 -18 -869 -23 -986 -46 -128 -26 -410 -32 -449 -10 -12 7 -58 16 -102 19
-44 4 -111 14 -150 23 -61 14 -176 16 -880 16 l-810 0 -40 25 -40 24 -336 1
c-335 0 -416 6 -579 43 -41 9 -267 12 -905 12 l-850 0 -28 -25 c-32 -30 -34
-44 -7 -63 18 -13 19 -30 22 -478 4 -446 4 -466 25 -516 12 -29 24 -72 28 -95
4 -24 15 -61 25 -83 10 -22 32 -72 50 -111 l32 -72 -4 -358 c-4 -343 -5 -362
-27 -419 -50 -133 -52 -163 -46 -555 9 -600 7 -1835 -5 -2140 -6 -157 -14
-904 -18 -1660 -5 -1071 -10 -1380 -19 -1397 -7 -12 -13 -48 -13 -80 0 -33 -5
-64 -12 -71 -6 -6 -15 -30 -19 -54 -4 -24 -13 -63 -19 -88 -6 -25 -15 -75 -20
-111 -5 -37 -13 -75 -19 -85 -50 -90 -66 -150 -77 -282 -7 -80 0 -112 26 -112
10 0 22 -4 25 -10 4 -6 69 -10 164 -10 93 0 161 -4 167 -10 10 -10 502 -8
1288 5 181 3 323 2 330 -3 6 -5 47 -12 91 -16 44 -4 84 -11 90 -15 21 -17 94
-24 250 -23 180 0 256 7 300 26 17 8 57 21 90 29 33 9 98 30 145 48 85 33 85
33 301 37 184 3 221 1 250 -13 61 -29 93 -48 122 -72 16 -12 40 -23 53 -23 14
0 43 -9 65 -20 38 -20 53 -21 377 -17 230 3 353 8 387 17 65 17 593 26 608 11
6 -6 34 -11 62 -11 28 0 58 -7 69 -15 16 -12 68 -15 292 -15 171 0 275 -4 279
-10 3 -5 31 -10 61 -10 35 0 76 -9 116 -25 57 -23 74 -25 224 -25 98 0 165 4
169 10 3 5 24 10 46 10 22 0 50 6 62 14 12 7 56 22 97 31 41 10 93 26 115 35
22 9 58 20 80 24 22 4 67 16 100 26 160 50 163 50 592 50 392 0 446 -3 493
-31 8 -5 22 -12 30 -15 8 -3 36 -17 61 -30 26 -13 62 -24 81 -24 19 0 38 -4
44 -10 10 -10 69 -25 160 -40 28 -4 61 -13 72 -19 11 -6 38 -11 59 -11 22 0
43 -4 48 -9 18 -16 97 -23 260 -24 212 -1 283 13 388 73 44 26 53 31 73 39 49
22 54 53 54 356 0 161 4 285 9 291 6 5 11 166 13 376 2 277 6 370 16 380 15
15 17 254 2 263 -6 4 -10 133 -10 353 0 268 -4 361 -15 407 -8 33 -15 101 -15
150 0 50 -5 108 -11 130 -40 155 -40 1650 0 1835 6 25 10 194 11 377 0 182 4
334 9 337 5 3 12 21 15 40 4 18 15 41 26 51 50 46 50 42 50 605 0 418 -3 536
-14 566 -7 22 -19 71 -25 109 -7 39 -23 99 -36 135 -21 56 -39 130 -76 316 -4
23 -24 91 -43 150 -82 257 -85 270 -67 289 5 6 11 30 14 55 3 25 10 63 16 85
7 26 10 191 10 470 0 354 -2 434 -14 455 -8 14 -14 39 -15 56 0 30 -25 64 -47
64 -5 0 -15 11 -21 24 -11 25 -20 28 -162 46 -41 6 -88 15 -104 20 -16 6 -62
10 -103 10 -61 0 -80 4 -113 25 -22 14 -50 25 -62 25 -13 1 -34 7 -48 15 -14
8 -36 15 -50 15 -14 0 -45 8 -70 17 -96 35 -224 46 -575 49 -187 1 -358 -2
-380 -6z m780 -59 c50 -6 98 -16 107 -21 10 -6 29 -10 42 -10 14 0 28 -4 31
-10 3 -5 21 -10 38 -10 18 0 45 -7 61 -15 15 -8 38 -15 51 -15 12 0 34 -11 49
-25 25 -23 35 -25 122 -25 53 0 103 -4 113 -10 10 -5 49 -14 87 -19 38 -5 85
-14 104 -19 41 -11 100 -62 100 -89 1 -10 7 -29 15 -43 12 -21 14 -99 14 -445
0 -267 -3 -435 -10 -460 -6 -22 -13 -56 -16 -75 -2 -19 -9 -45 -15 -56 -16
-33 -6 -83 55 -279 31 -99 68 -238 82 -310 14 -71 37 -159 50 -195 13 -36 31
-102 39 -148 9 -46 20 -91 26 -102 6 -12 10 -207 10 -539 0 -509 -3 -571 -32
-571 -4 0 -22 -28 -38 -62 l-30 -62 0 -340 c-1 -188 -5 -361 -11 -386 -15 -73
-32 -616 -32 -1020 1 -396 15 -748 32 -815 6 -22 11 -78 11 -125 0 -47 7 -117
15 -155 11 -54 15 -150 15 -422 0 -224 4 -354 10 -358 15 -9 13 -202 -2 -228
-13 -22 -18 -199 -33 -1037 -5 -284 -9 -309 -49 -339 -49 -37 -157 -86 -206
-94 -80 -14 -356 -13 -415 2 -27 6 -75 16 -107 20 -31 5 -62 12 -69 17 -8 4
-34 11 -59 15 -83 14 -144 29 -154 39 -6 6 -24 10 -41 10 -27 0 -123 41 -157
67 -41 31 -95 34 -528 30 -355 -2 -446 -6 -495 -19 -119 -31 -221 -60 -265
-75 -25 -9 -81 -25 -125 -35 -44 -11 -89 -24 -100 -31 -11 -6 -42 -15 -70 -20
-73 -14 -346 -20 -370 -8 -89 42 -167 52 -495 60 -191 4 -282 10 -297 19 -12
6 -39 12 -60 12 -22 0 -44 5 -50 11 -15 15 -572 6 -638 -11 -34 -9 -159 -14
-382 -17 -319 -4 -333 -3 -372 17 -22 11 -47 20 -56 20 -9 0 -31 11 -49 25
-18 14 -37 25 -41 25 -5 0 -30 14 -56 31 l-48 31 -238 -5 -238 -4 -85 -32
c-120 -45 -171 -61 -200 -61 -14 0 -35 -6 -45 -14 -25 -17 -98 -26 -270 -32
-103 -4 -143 -1 -190 12 -33 9 -89 21 -125 26 -36 5 -79 13 -96 19 -42 13
-681 12 -689 -1 -8 -14 -922 -14 -930 0 -4 6 -70 10 -166 10 -91 0 -169 4
-180 10 -15 9 -19 22 -19 65 0 29 5 57 10 60 6 3 10 24 10 45 0 21 6 51 14 67
44 88 60 135 67 193 13 105 21 140 30 146 5 3 9 22 9 43 0 22 6 44 15 51 11 9
15 32 15 79 0 40 5 72 13 79 9 10 14 311 19 1395 4 760 12 1513 18 1672 12
311 14 1562 5 2145 -6 360 -1 442 31 500 33 61 37 107 41 498 3 268 1 392 -6
392 -24 0 -112 238 -142 385 -4 22 -8 243 -9 491 l0 452 373 7 c465 9 1286 1
1347 -13 149 -35 250 -42 574 -42 l328 0 30 -25 30 -25 826 0 c718 0 836 -2
897 -16 39 -9 105 -19 147 -22 43 -4 83 -13 90 -20 22 -22 335 -16 469 10 122
23 236 28 984 46 210 4 387 12 395 17 16 11 88 20 255 35 61 5 133 14 160 19
28 6 106 17 175 26 69 9 143 20 165 25 57 12 673 5 780 -9z"/>
</g>
</svg>
