<?xml version="1.0" standalone="no"?>
<!DOCTYPE svg PUBLIC "-//W3C//DTD SVG 20010904//EN"
 "http://www.w3.org/TR/2001/REC-SVG-20010904/DTD/svg10.dtd">
<svg version="1.0" xmlns="http://www.w3.org/2000/svg"
 width="960.000000pt" height="960.000000pt" viewBox="0 0 960.000000 960.000000"
 preserveAspectRatio="xMidYMid meet">
<metadata>
Created by potrace 1.14, written by Peter Selinger 2001-2017
</metadata>
<g transform="translate(0.000000,960.000000) scale(0.100000,-0.100000)"
fill="#000000" stroke="none">
<path d="M327 9314 c-13 -13 4 -24 39 -24 l34 0 0 -75 c0 -56 5 -86 20 -115
16 -32 20 -59 20 -140 0 -81 4 -108 20 -140 20 -38 20 -59 20 -1118 0 -1053 0
-1080 -20 -1137 -18 -54 -20 -84 -20 -397 0 -319 -1 -341 -20 -378 -19 -38
-20 -59 -20 -663 0 -581 -1 -628 -19 -678 -10 -30 -28 -99 -41 -154 -12 -55
-31 -119 -41 -143 -18 -41 -19 -81 -19 -991 0 -935 0 -948 20 -966 14 -13 20
-31 20 -60 0 -29 6 -47 20 -60 18 -16 20 -31 20 -120 0 -89 3 -104 20 -120 19
-18 20 -33 22 -659 l3 -641 255 -5 c209 -5 263 -9 299 -23 36 -14 78 -17 248
-17 184 0 208 -2 243 -20 26 -13 59 -20 98 -20 33 0 85 -9 117 -20 55 -19 84
-20 607 -20 529 0 550 1 588 20 36 18 59 20 295 20 236 0 259 -2 295 -20 35
-18 59 -20 238 -20 186 0 200 -1 217 -20 16 -18 31 -20 120 -20 76 0 117 -5
160 -20 54 -19 84 -20 430 -20 359 0 373 1 390 20 13 14 31 20 60 20 23 0 68
9 100 20 57 19 84 20 1042 20 976 0 983 0 983 20 0 13 7 20 20 20 13 0 20 7
20 20 0 17 7 20 40 20 33 0 40 3 40 20 0 17 7 20 40 20 33 0 40 3 40 20 0 18
7 20 60 20 53 0 60 2 60 20 0 18 7 20 80 20 73 0 80 2 80 20 0 17 7 20 40 20
33 0 40 3 40 20 0 20 7 20 275 20 256 0 279 1 315 20 37 19 59 20 365 20 l325
0 0 69 c0 58 -4 74 -24 98 -45 54 -56 88 -56 171 0 64 -4 84 -20 105 -11 14
-20 32 -20 41 0 9 -9 34 -20 56 -17 34 -20 59 -20 180 0 121 -3 146 -20 180
-18 36 -20 59 -20 280 0 221 -2 244 -20 280 -19 38 -20 59 -20 655 0 596 1
617 20 655 14 27 20 59 20 102 0 35 9 133 20 218 11 85 20 174 20 198 0 24 9
61 21 84 35 68 59 148 59 195 0 24 9 61 20 83 11 22 20 57 20 78 0 26 7 45 20
57 16 14 20 31 20 82 0 44 6 76 20 103 14 26 20 59 20 100 0 65 21 120 59 154
18 17 21 30 21 103 0 64 5 93 20 123 11 22 20 49 20 60 0 11 9 38 20 60 17 33
20 59 20 158 0 106 2 121 20 137 19 17 20 31 20 197 0 171 1 178 20 178 19 0
20 7 20 243 0 231 1 245 20 262 19 17 20 31 20 322 0 284 1 306 20 343 17 34
20 59 20 180 0 121 3 146 20 180 20 38 20 59 20 845 l0 805 -39 43 c-21 23
-40 51 -42 62 -4 19 -14 20 -294 25 -251 4 -294 7 -322 23 -30 16 -124 17
-1576 17 -1529 0 -1545 0 -1570 -20 -18 -14 -40 -20 -80 -20 -29 0 -80 -9
-112 -20 -55 -19 -84 -20 -500 -20 -427 0 -443 -1 -468 -20 -24 -19 -40 -20
-340 -20 -276 0 -320 -2 -358 -17 -41 -17 -150 -18 -1644 -23 -1059 -3 -1599
-8 -1598 -15 2 -7 543 -11 1590 -13 1566 -2 1589 -2 1647 18 55 18 86 20 381
20 309 0 323 1 340 20 18 19 31 20 460 20 416 0 445 1 500 20 34 12 84 20 120
20 49 0 66 4 80 20 18 20 31 20 1552 20 1514 0 1534 0 1573 -20 36 -19 59 -20
315 -20 258 0 275 -1 275 -18 0 -10 18 -36 40 -57 l40 -39 0 -793 c0 -774 0
-795 -20 -833 -17 -34 -20 -59 -20 -180 0 -121 -3 -146 -20 -180 -19 -37 -20
-59 -20 -336 0 -281 -1 -297 -20 -321 -19 -24 -20 -41 -20 -258 0 -224 -1
-233 -20 -238 -19 -5 -20 -14 -20 -182 0 -162 -2 -179 -20 -202 -17 -22 -20
-41 -20 -145 0 -99 -3 -125 -20 -158 -11 -22 -20 -49 -20 -60 0 -11 -9 -38
-20 -60 -15 -30 -20 -59 -20 -119 0 -44 -5 -83 -10 -86 -6 -4 -24 -30 -40 -58
-24 -42 -30 -64 -30 -115 0 -43 -6 -75 -20 -102 -13 -25 -20 -59 -20 -96 0
-41 -5 -63 -20 -81 -12 -16 -20 -41 -20 -65 0 -21 -9 -56 -20 -78 -11 -22 -20
-59 -20 -83 0 -47 -24 -127 -59 -195 -13 -25 -21 -60 -21 -89 0 -26 -9 -118
-20 -203 -11 -85 -20 -181 -20 -213 0 -38 -7 -71 -20 -97 -19 -38 -20 -59 -20
-665 0 -606 1 -627 20 -665 18 -36 20 -59 20 -280 0 -221 2 -244 20 -280 17
-34 20 -59 20 -180 0 -121 3 -146 20 -180 11 -22 20 -50 20 -63 0 -13 9 -32
20 -42 17 -15 20 -31 20 -97 0 -63 5 -88 24 -126 14 -27 32 -54 40 -61 11 -9
16 -30 16 -62 l0 -49 -315 0 c-296 0 -318 -1 -355 -20 -36 -19 -59 -20 -321
-20 -272 0 -281 -1 -286 -20 -4 -15 -14 -20 -40 -20 -26 0 -36 -5 -40 -20 -5
-18 -14 -20 -80 -20 -66 0 -75 -2 -80 -20 -5 -17 -14 -20 -60 -20 -46 0 -56
-3 -60 -20 -4 -15 -14 -20 -40 -20 -26 0 -36 -5 -40 -20 -4 -15 -14 -20 -40
-20 -26 0 -36 -5 -40 -19 -3 -11 -13 -21 -24 -24 -10 -3 -19 -12 -19 -21 0
-15 -89 -16 -973 -16 -948 0 -975 -1 -1032 -20 -32 -11 -77 -20 -100 -20 -27
0 -51 -7 -68 -20 -24 -19 -40 -20 -380 -20 -328 0 -358 1 -412 20 -42 14 -84
20 -152 20 -80 0 -99 3 -120 20 -24 18 -41 20 -225 20 -179 0 -203 2 -238 20
-36 19 -59 20 -305 20 -246 0 -269 -1 -305 -20 -38 -19 -59 -20 -578 -20 -513
0 -542 1 -597 20 -32 11 -84 20 -117 20 -39 0 -72 7 -98 20 -35 18 -59 20
-243 20 -178 0 -211 3 -262 20 -52 18 -84 20 -292 20 l-233 0 0 634 c0 618 0
634 -20 659 -17 21 -20 40 -20 120 0 79 -3 98 -20 120 -11 14 -20 40 -20 60 0
19 -9 45 -20 60 -20 25 -20 40 -20 956 0 892 1 932 19 973 10 24 24 72 31 108
6 36 25 106 41 156 l29 91 0 622 c0 602 1 623 20 661 19 37 20 59 20 378 0
313 2 343 20 397 20 57 20 84 20 1147 0 1069 0 1090 -20 1128 -16 32 -20 59
-20 140 0 77 -4 109 -17 133 -12 21 -20 63 -23 122 l-5 90 -45 3 c-25 2 -49 0
-53 -4z"/>
</g>
</svg>
