<?xml version="1.0" standalone="no"?>
<!DOCTYPE svg PUBLIC "-//W3C//DTD SVG 20010904//EN"
 "http://www.w3.org/TR/2001/REC-SVG-20010904/DTD/svg10.dtd">
<svg version="1.0" xmlns="http://www.w3.org/2000/svg"
 width="960.000000pt" height="960.000000pt" viewBox="0 0 960.000000 960.000000"
 preserveAspectRatio="xMidYMid meet">
<metadata>
Created by potrace 1.14, written by Peter Selinger 2001-2017
</metadata>
<g transform="translate(0.000000,960.000000) scale(0.100000,-0.100000)"
fill="#000000" stroke="none">
<path d="M235 9398 c-3 -8 -4 -68 -3 -134 3 -111 4 -119 23 -119 19 0 20 7 20
130 0 116 -2 130 -18 133 -9 2 -19 -3 -22 -10z"/>
<path d="M8905 9360 c-176 -27 -357 -54 -403 -60 -83 -12 -108 -28 -85 -51 12
-12 842 106 857 121 15 15 -2 40 -26 39 -13 -1 -167 -23 -343 -49z"/>
<path d="M5713 9274 c-3 -8 -2 -19 3 -24 11 -11 840 -73 854 -65 14 9 12 35
-2 40 -10 4 -806 65 -841 65 -4 0 -10 -7 -14 -16z"/>
<path d="M7034 9256 c-4 -10 -3 -21 2 -26 13 -13 844 -34 857 -21 5 5 7 16 4
24 -4 12 -47 16 -224 21 -120 3 -311 9 -425 12 -189 6 -208 5 -214 -10z"/>
<path d="M493 9234 c-3 -8 -2 -19 3 -24 11 -11 1160 -113 1174 -105 14 9 12
35 -2 40 -10 4 -1131 105 -1161 105 -4 0 -10 -7 -14 -16z"/>
<path d="M3853 9214 c-3 -8 -1 -20 4 -25 5 -5 192 -8 474 -7 456 3 464 3 464
23 0 20 -8 20 -468 23 -418 2 -468 1 -474 -14z"/>
<path d="M1993 9194 c-3 -8 -1 -20 4 -25 5 -5 265 -8 664 -7 646 3 654 3 654
23 0 20 -8 20 -658 23 -591 2 -658 1 -664 -14z"/>
<path d="M9315 9081 c-6 -10 32 -868 40 -888 5 -15 31 -17 40 -3 7 11 -33 879
-41 892 -7 11 -31 10 -39 -1z"/>
<path d="M7085 9028 c-3 -8 -4 -103 -3 -212 2 -149 6 -200 16 -204 15 -5 18
413 2 423 -6 3 -12 0 -15 -7z"/>
<path d="M5836 9019 c-3 -8 -10 -52 -15 -99 -6 -47 -15 -121 -22 -165 -15
-108 -18 -637 -3 -642 8 -3 13 83 18 289 3 161 11 320 16 353 25 151 34 255
22 267 -8 8 -13 8 -16 -3z"/>
<path d="M4786 9011 c-10 -15 14 -374 25 -385 19 -21 21 11 10 191 -11 176
-19 220 -35 194z"/>
<path d="M2436 8962 c-3 -4 1 -26 9 -48 12 -36 41 -191 47 -258 5 -49 28 -44
28 6 0 45 -23 184 -40 249 -11 38 -34 66 -44 51z"/>
<path d="M1175 8888 c-3 -8 -4 -68 -3 -133 2 -84 7 -120 16 -123 15 -5 18 253
2 263 -6 3 -13 0 -15 -7z"/>
<path d="M7985 8868 c-3 -7 -4 -141 -3 -297 2 -217 6 -285 16 -289 16 -5 18
583 2 593 -6 3 -12 0 -15 -7z"/>
<path d="M3597 8743 c-3 -5 -6 -109 -8 -232 -3 -158 -1 -225 7 -228 15 -5 24
99 24 294 0 141 -7 193 -23 166z"/>
<path d="M255 8558 c-3 -8 -4 -81 -3 -163 3 -142 4 -150 23 -150 19 0 20 7 20
160 0 144 -2 160 -18 163 -9 2 -19 -3 -22 -10z"/>
<path d="M5314 8564 c-7 -3 -41 -8 -75 -12 -75 -8 -78 -28 -4 -25 162 5 276
16 272 27 -4 11 -170 20 -193 10z"/>
<path d="M3920 8473 c-146 -3 -170 -7 -153 -24 16 -16 615 -1 610 15 -4 11
-185 15 -457 9z"/>
<path d="M6174 8468 c-3 -4 4 -12 15 -17 27 -15 591 -15 591 -1 0 6 -6 13 -12
15 -22 8 -590 10 -594 3z"/>
<path d="M2977 8463 c-4 -4 -72 -10 -150 -13 -184 -7 -188 -25 -4 -24 170 2
289 13 284 28 -4 13 -119 21 -130 9z"/>
<path d="M1607 8454 c-19 -20 26 -24 249 -24 192 0 245 3 242 13 -4 9 -63 13
-244 15 -132 1 -243 -1 -247 -4z"/>
<path d="M7633 8436 c-122 -11 -159 -24 -135 -48 8 -8 15 -8 24 -1 7 6 80 16
163 23 82 6 151 13 153 15 2 2 1 8 -3 14 -7 13 -36 12 -202 -3z"/>
<path d="M620 8376 c-114 -12 -140 -32 -37 -30 249 6 437 18 434 28 -5 15
-261 16 -397 2z"/>
<path d="M8477 8350 c-134 -3 -217 -9 -217 -15 0 -7 149 -9 434 -6 l433 3 6
-21 c3 -12 10 -21 15 -21 12 0 25 47 17 60 -6 10 -281 10 -688 0z"/>
<path d="M4805 8299 c-3 -8 -1 -64 5 -124 6 -61 15 -162 20 -225 15 -175 23
-223 39 -228 12 -4 13 8 7 69 -4 41 -11 121 -16 179 -21 240 -31 325 -40 334
-6 6 -11 4 -15 -5z"/>
<path d="M2497 8264 c-8 -9 -7 -177 2 -283 4 -48 11 -76 19 -79 11 -3 12 30 6
174 -6 169 -11 204 -27 188z"/>
<path d="M1173 8164 c-13 -32 -10 -387 4 -391 8 -3 12 50 15 194 4 188 -1 240
-19 197z"/>
<path d="M7054 8017 c-8 -22 0 -125 19 -247 17 -106 38 -172 55 -178 15 -5 15
28 1 65 -14 35 -39 195 -46 288 -5 72 -17 102 -29 72z"/>
<path d="M3597 7953 c-8 -8 -8 -136 1 -252 5 -58 11 -86 21 -89 11 -4 12 24 6
164 -7 160 -12 194 -28 177z"/>
<path d="M5785 7868 c-3 -8 -4 -103 -3 -212 2 -149 6 -200 16 -204 15 -5 18
413 2 423 -6 3 -12 0 -15 -7z"/>
<path d="M7985 7850 c-7 -11 19 -310 33 -379 4 -19 13 -36 21 -39 10 -3 12 8
7 54 -37 362 -43 394 -61 364z"/>
<path d="M9377 7703 c-11 -18 -29 -965 -18 -976 5 -5 16 -7 24 -4 16 6 25 232
30 747 2 211 0 235 -15 238 -9 2 -18 -1 -21 -5z"/>
<path d="M255 7620 c-6 -9 91 -555 101 -572 8 -13 34 -9 40 5 5 13 -92 553
-102 569 -7 11 -32 10 -39 -2z"/>
<path d="M2466 7583 c-11 -12 -6 -187 8 -268 17 -94 31 -135 47 -135 7 0 9 11
6 28 -3 15 -12 65 -21 112 -9 47 -16 124 -16 172 0 80 -7 107 -24 91z"/>
<path d="M4837 7443 c-9 -8 -8 -421 1 -487 4 -27 12 -51 18 -53 12 -4 7 526
-5 540 -4 4 -10 4 -14 0z"/>
<path d="M6805 7385 c-72 -13 -279 -32 -485 -44 -64 -4 -122 -11 -129 -15 -43
-27 55 -25 437 8 199 17 294 34 289 50 -5 16 -32 16 -112 1z"/>
<path d="M1858 7385 c-3 -3 -71 -9 -151 -15 -80 -5 -155 -14 -167 -20 -28 -15
-14 -33 19 -25 41 11 258 26 454 32 128 3 177 8 174 16 -4 12 -317 23 -329 12z"/>
<path d="M4190 7360 c-120 -3 -195 -9 -195 -15 0 -15 110 -17 393 -10 182 5
252 10 249 19 -4 13 -146 15 -447 6z"/>
<path d="M367 7354 c-4 -4 -4 -11 -1 -15 3 -5 165 -9 360 -9 280 0 355 3 352
13 -4 9 -85 13 -355 15 -192 1 -352 -1 -356 -4z"/>
<path d="M7575 7331 c-141 -6 -177 -24 -60 -29 115 -6 317 8 312 22 -4 13 -68
15 -252 7z"/>
<path d="M3249 7326 c-3 -3 -79 -13 -170 -22 -90 -8 -168 -19 -173 -24 -13
-13 3 -31 22 -26 10 3 64 10 122 16 177 17 261 32 257 44 -4 11 -49 21 -58 12z"/>
<path d="M5345 7314 c-137 -14 -232 -32 -241 -46 -10 -15 27 -21 63 -10 20 6
120 19 224 29 118 11 188 21 186 28 -5 15 -84 15 -232 -1z"/>
<path d="M1213 7285 c-5 -16 -3 -63 16 -354 4 -68 10 -96 20 -99 15 -5 15 -11
-5 346 -7 107 -17 143 -31 107z"/>
<path d="M7166 7291 c-4 -6 -4 -17 1 -23 4 -7 10 -130 13 -272 4 -203 8 -260
18 -264 11 -3 13 45 10 267 -3 234 -5 273 -19 287 -11 11 -19 12 -23 5z"/>
<path d="M8775 7249 c-22 -5 -79 -12 -128 -17 -48 -4 -87 -11 -87 -17 0 -17
111 -17 205 0 76 14 127 16 324 10 196 -6 233 -5 229 6 -3 11 -38 16 -139 20
-189 9 -357 8 -404 -2z"/>
<path d="M3607 7223 c-3 -5 -7 -109 -8 -232 -3 -157 0 -226 7 -228 17 -6 24
72 24 273 0 161 -7 214 -23 187z"/>
<path d="M5776 7063 c-9 -9 -7 -108 3 -156 5 -23 16 -82 25 -132 8 -49 24
-139 35 -200 11 -60 21 -123 23 -139 2 -16 9 -31 16 -34 15 -5 16 59 3 121
-14 63 -29 142 -46 247 -9 52 -20 117 -25 143 -6 27 -10 70 -10 97 0 46 -9 67
-24 53z"/>
<path d="M8013 6894 c-10 -26 5 -442 17 -464 16 -30 33 -25 26 8 -3 15 -9 125
-12 245 -7 202 -14 254 -31 211z"/>
<path d="M7615 6740 c-27 -5 -73 -9 -101 -9 -47 -1 -88 -21 -67 -34 16 -9 333
27 330 37 -4 14 -95 16 -162 6z"/>
<path d="M2755 6711 c-7 -13 16 -24 85 -44 127 -35 162 -40 309 -45 127 -4
153 -2 149 9 -4 11 -38 15 -144 20 -138 5 -188 13 -314 50 -76 22 -77 22 -85
10z"/>
<path d="M5978 6704 c-19 -19 17 -24 170 -24 92 0 208 -4 257 -10 144 -14 515
-33 522 -26 4 3 2 10 -3 15 -21 21 -928 64 -946 45z"/>
<path d="M5280 6679 c-41 -5 -108 -13 -148 -17 -40 -4 -73 -11 -75 -17 -4 -17
78 -17 205 -1 66 9 147 16 180 16 43 0 59 3 56 13 -6 15 -114 18 -218 6z"/>
<path d="M8296 6681 c-4 -6 -1 -13 6 -15 7 -3 114 -7 238 -10 124 -3 285 -9
359 -12 111 -6 133 -4 129 7 -5 17 -96 23 -469 34 -190 6 -258 5 -263 -4z"/>
<path d="M4260 6660 c-80 -5 -172 -13 -205 -19 -88 -16 -278 -14 -320 3 -32
14 -45 12 -45 -6 0 -38 233 -51 405 -23 50 8 140 15 200 15 119 0 158 6 152
24 -5 14 -13 14 -187 6z"/>
<path d="M485 6650 c-3 -6 0 -12 7 -15 7 -2 123 -6 258 -9 135 -2 260 -7 279
-11 49 -11 36 16 -15 32 -50 15 -520 18 -529 3z"/>
<path d="M1720 6639 c-47 -5 -121 -10 -165 -13 -83 -4 -102 -12 -73 -29 12 -8
49 -7 130 2 62 7 211 15 331 18 152 4 217 9 214 17 -5 14 -313 17 -437 5z"/>
<path d="M2574 6636 c-4 -10 -2 -48 5 -86 6 -38 11 -93 11 -122 1 -83 34 -291
48 -296 15 -5 16 64 2 123 -5 22 -12 78 -15 125 -7 116 -26 253 -36 264 -5 5
-11 2 -15 -8z"/>
<path d="M255 6438 c-3 -7 -4 -121 -3 -253 3 -232 4 -240 23 -240 19 0 20 7
20 250 0 230 -1 250 -18 253 -9 2 -19 -3 -22 -10z"/>
<path d="M9355 6421 c-6 -10 32 -847 40 -868 5 -15 31 -17 40 -3 7 11 -33 859
-41 872 -7 11 -31 10 -39 -1z"/>
<path d="M7189 6383 c-3 -17 3 -49 11 -58 10 -13 28 -116 43 -244 7 -65 17
-106 25 -109 16 -5 16 35 -3 178 -15 119 -25 166 -44 213 -10 25 -29 37 -32
20z"/>
<path d="M4844 6326 c-4 -10 -2 -40 4 -67 10 -42 25 -231 35 -423 1 -29 7 -51
15 -54 15 -5 16 95 2 293 -14 193 -38 299 -56 251z"/>
<path d="M3655 6178 c-3 -8 -4 -94 -3 -193 2 -132 6 -179 16 -183 15 -5 18
373 2 383 -6 3 -12 0 -15 -7z"/>
<path d="M1176 6139 c-19 -60 -28 -510 -10 -516 8 -3 13 42 18 149 3 84 9 199
12 256 4 69 3 107 -4 114 -8 8 -13 7 -16 -3z"/>
<path d="M9000 6053 c-19 -1 -120 -7 -225 -12 -187 -9 -259 -21 -238 -42 7 -7
31 -7 74 0 70 11 470 31 612 31 67 0 88 3 85 13 -4 9 -41 12 -139 13 -74 0
-150 -1 -169 -3z"/>
<path d="M8034 6035 c-4 -10 0 -93 10 -184 9 -91 18 -184 19 -205 1 -22 8 -41
15 -44 17 -5 16 77 -5 273 -16 158 -26 196 -39 160z"/>
<path d="M5675 5948 c-16 -6 -136 -13 -265 -17 -151 -4 -233 -10 -230 -16 8
-16 444 -13 508 4 31 7 51 18 49 25 -5 15 -26 17 -62 4z"/>
<path d="M7317 5944 c-19 -20 26 -24 244 -24 188 0 240 3 237 13 -4 9 -62 13
-239 15 -130 1 -238 -1 -242 -4z"/>
<path d="M6608 5930 c-157 -3 -241 -9 -248 -16 -7 -7 -8 -14 -3 -16 12 -6 603
8 609 15 16 16 -13 27 -64 25 -31 -1 -164 -5 -294 -8z"/>
<path d="M3102 5906 c-122 -12 -224 -25 -225 -31 -1 -5 14 -11 33 -13 42 -3
449 33 457 41 9 10 -8 27 -25 26 -9 -1 -117 -11 -240 -23z"/>
<path d="M5855 5920 c-4 -6 -4 -32 0 -58 4 -26 10 -116 14 -201 4 -110 10
-156 19 -159 15 -5 16 177 2 318 -10 93 -21 123 -35 100z"/>
<path d="M1627 5894 c-4 -4 -4 -11 -1 -15 3 -5 181 -9 395 -9 308 0 390 3 387
13 -4 9 -92 13 -390 15 -211 1 -387 -1 -391 -4z"/>
<path d="M3765 5890 c-10 -17 12 -19 200 -23 99 -3 294 -10 433 -17 139 -7
255 -10 259 -6 18 18 -31 25 -257 36 -358 19 -627 23 -635 10z"/>
<path d="M437 5874 c-18 -19 18 -24 159 -24 120 0 155 3 152 13 -4 9 -45 13
-154 15 -83 1 -153 0 -157 -4z"/>
<path d="M7255 5788 c-3 -8 -4 -99 -3 -202 2 -141 6 -190 16 -194 15 -5 18
393 2 403 -6 3 -12 0 -15 -7z"/>
<path d="M2604 5655 c-4 -10 -1 -34 7 -54 7 -20 16 -87 19 -150 4 -85 9 -116
19 -119 11 -4 13 18 8 124 -6 146 -34 250 -53 199z"/>
<path d="M4883 5374 c-3 -8 -1 -26 6 -40 6 -14 11 -44 11 -68 0 -23 5 -78 11
-122 5 -43 13 -162 17 -263 5 -134 10 -186 20 -189 15 -5 16 184 2 353 -5 61
-13 148 -16 195 -7 76 -26 150 -39 150 -3 0 -8 -7 -12 -16z"/>
<path d="M8615 5339 c-27 -5 -80 -12 -118 -17 -37 -4 -69 -11 -70 -17 -4 -17
69 -17 172 -1 67 11 167 16 311 16 165 0 211 3 208 13 -6 15 -424 20 -503 6z"/>
<path d="M3696 5288 c-4 -12 -18 -285 -20 -392 -1 -28 4 -51 10 -53 23 -8 47
438 24 452 -6 3 -12 0 -14 -7z"/>
<path d="M7357 5274 c-20 -20 32 -24 312 -24 184 0 311 -4 317 -10 15 -15 55
0 52 19 -3 14 -39 16 -339 19 -184 1 -338 -1 -342 -4z"/>
<path d="M3125 5255 c-5 -1 -44 -9 -85 -16 -41 -7 -81 -17 -88 -22 -23 -18 2
-26 48 -16 96 20 168 29 238 29 54 0 73 3 70 13 -3 8 -32 13 -89 14 -46 1 -88
0 -94 -2z"/>
<path d="M6579 5191 c-172 -4 -250 -10 -261 -18 -10 -9 -69 -13 -186 -15 -106
-2 -172 -7 -172 -13 0 -14 353 -12 410 3 26 6 133 11 250 12 211 0 253 4 247
24 -5 14 4 14 -288 7z"/>
<path d="M3915 5171 c-9 -16 5 -18 145 -25 74 -3 196 -11 270 -18 137 -11 214
-6 208 14 -2 6 -42 12 -98 13 -52 2 -167 8 -255 14 -200 13 -262 14 -270 2z"/>
<path d="M5212 5141 c-47 -4 -81 -10 -80 -16 3 -9 606 -8 617 1 1 1 0 7 -4 13
-7 12 -374 12 -533 2z"/>
<path d="M8056 5122 c-9 -15 -30 -407 -23 -426 17 -42 24 1 35 201 11 197 8
257 -12 225z"/>
<path d="M9375 5121 c-3 -5 4 -225 15 -488 11 -263 20 -488 20 -501 0 -25 26
-40 41 -25 10 10 -26 997 -37 1015 -7 11 -31 10 -39 -1z"/>
<path d="M1815 5078 c-22 -5 -67 -13 -100 -16 -33 -4 -59 -11 -57 -17 3 -13
114 -11 172 3 25 6 134 11 243 12 154 0 198 3 195 13 -6 15 -392 20 -453 5z"/>
<path d="M925 5039 c-60 -3 -128 -12 -150 -20 -24 -7 -118 -15 -238 -18 -121
-4 -197 -10 -197 -16 0 -16 396 -12 445 4 22 7 92 16 155 19 89 6 115 10 115
21 0 19 -1 19 -130 10z"/>
<path d="M7228 5015 c-3 -3 3 -38 14 -78 28 -105 39 -174 51 -341 8 -102 16
-151 25 -154 31 -10 0 333 -45 502 -17 64 -30 85 -45 71z"/>
<path d="M2637 4923 c-4 -5 1 -52 9 -104 8 -52 19 -132 25 -179 15 -129 33
-213 47 -218 15 -5 16 49 2 98 -6 19 -15 76 -20 125 -22 207 -45 308 -63 278z"/>
<path d="M1277 4693 c-3 -5 -6 -93 -8 -197 -3 -132 -1 -190 7 -193 14 -5 24
96 24 259 0 111 -8 156 -23 131z"/>
<path d="M5884 4687 c-3 -9 0 -56 6 -105 7 -48 16 -156 19 -241 4 -113 9 -156
19 -159 27 -9 -1 482 -29 512 -5 6 -11 3 -15 -7z"/>
<path d="M176 4641 c-9 -15 14 -444 24 -455 5 -5 16 -6 25 -2 14 5 15 22 9
153 -12 261 -17 307 -36 311 -9 2 -19 -2 -22 -7z"/>
<path d="M8905 4540 c-44 -5 -98 -14 -120 -21 -26 -8 -129 -15 -288 -18 -157
-4 -246 -10 -245 -16 2 -6 95 -10 253 -10 208 0 259 3 305 18 40 12 109 19
258 23 139 5 201 11 199 18 -4 13 -243 17 -362 6z"/>
<path d="M3743 4435 c-3 -10 -1 -59 6 -110 6 -52 12 -124 12 -162 2 -84 10
-125 27 -131 14 -4 12 52 -10 286 -11 119 -21 152 -35 117z"/>
<path d="M7770 4424 c-14 -2 -92 -8 -174 -13 -137 -9 -184 -19 -158 -35 6 -3
75 -2 154 4 264 18 299 22 295 34 -4 11 -70 17 -117 10z"/>
<path d="M7010 4320 c-14 -4 -128 -9 -255 -10 -269 -2 -402 -11 -395 -25 7
-14 575 -8 668 7 41 7 71 17 69 23 -4 13 -54 16 -87 5z"/>
<path d="M3330 4309 c-25 -4 -114 -12 -198 -16 -87 -5 -153 -12 -155 -18 -3
-15 120 -17 262 -4 69 6 170 14 224 16 68 3 97 8 94 16 -5 15 -162 19 -227 6z"/>
<path d="M4545 4308 c-60 -4 -221 -11 -358 -15 -156 -5 -246 -12 -245 -18 6
-21 763 -3 785 19 3 2 2 9 -2 15 -7 12 -11 12 -180 -1z"/>
<path d="M4956 4311 c-4 -6 -4 -17 1 -23 4 -7 10 -114 13 -237 4 -173 8 -225
18 -229 11 -3 13 40 10 232 -3 201 -5 238 -19 252 -11 11 -19 12 -23 5z"/>
<path d="M5076 4262 c-3 -6 -2 -13 4 -17 39 -24 485 -36 478 -12 -3 9 -56 14
-194 18 -104 3 -210 9 -235 13 -29 5 -49 4 -53 -2z"/>
<path d="M8084 4225 c-7 -17 -5 -35 24 -280 15 -123 21 -150 34 -153 14 -3 16
3 13 30 -13 96 -38 300 -42 351 -6 59 -18 81 -29 52z"/>
<path d="M2416 4213 c-4 -4 -167 -10 -361 -13 -242 -4 -358 -9 -366 -17 -6 -6
-7 -13 -2 -15 13 -8 727 8 746 17 18 8 19 26 1 32 -6 2 -14 0 -18 -4z"/>
<path d="M7275 4198 c-3 -7 -4 -112 -3 -232 2 -165 6 -220 16 -224 15 -5 18
453 2 463 -6 3 -12 0 -15 -7z"/>
<path d="M2685 4058 c-3 -7 -4 -116 -3 -242 2 -173 6 -230 16 -234 15 -5 18
473 2 483 -6 3 -12 0 -15 -7z"/>
<path d="M778 4009 c-178 -6 -234 -12 -259 -24 -42 -22 -25 -42 23 -26 19 6
148 15 287 20 139 5 255 11 258 14 13 13 -11 27 -45 25 -20 0 -139 -5 -264 -9z"/>
<path d="M1369 3693 c-2 -4 -2 -127 1 -272 4 -204 8 -265 18 -269 17 -5 13
521 -4 538 -7 7 -13 8 -15 3z"/>
<path d="M9435 3678 c-3 -7 -4 -144 -3 -303 3 -282 4 -290 23 -290 20 0 20 7
20 300 0 278 -1 300 -18 303 -9 2 -19 -3 -22 -10z"/>
<path d="M3765 3578 c-3 -8 -4 -103 -3 -212 2 -149 6 -200 16 -204 15 -5 18
413 2 423 -6 3 -12 0 -15 -7z"/>
<path d="M5954 3506 c-3 -9 -4 -44 -1 -79 3 -34 12 -145 21 -246 14 -166 24
-216 41 -199 3 3 -2 95 -11 204 -9 110 -19 226 -21 259 -5 63 -18 91 -29 61z"/>
<path d="M4949 3404 c-2 -5 -2 -114 1 -243 4 -175 8 -235 18 -239 18 -6 17
447 -1 473 -8 10 -16 14 -18 9z"/>
<path d="M8285 3381 c-3 -5 -2 -12 2 -14 5 -3 219 -8 477 -12 396 -6 468 -5
464 6 -4 11 -56 15 -259 20 -411 10 -677 10 -684 0z"/>
<path d="M7247 3373 c-2 -4 -2 -116 2 -247 5 -190 9 -240 20 -244 11 -4 13 35
9 237 -2 155 -8 245 -15 252 -6 6 -13 7 -16 2z"/>
<path d="M7475 3361 c-16 -3 -29 -10 -27 -16 2 -8 482 -8 491 0 1 2 0 8 -4 14
-7 12 -407 14 -460 2z"/>
<path d="M6950 3328 c-46 -9 -254 -23 -570 -36 -212 -9 -232 -27 -30 -27 206
0 570 17 576 27 3 4 20 8 37 8 38 0 62 13 53 29 -4 6 -10 10 -14 10 -4 -1 -27
-6 -52 -11z"/>
<path d="M2676 3283 c-10 -11 -7 -183 4 -204 6 -10 15 -76 20 -145 8 -112 19
-158 35 -143 8 9 -14 279 -25 299 -6 10 -10 57 -10 104 0 78 -7 105 -24 89z"/>
<path d="M2875 3271 c-3 -5 -2 -12 2 -14 5 -2 115 -8 245 -12 239 -7 372 -1
366 17 -5 13 -605 21 -613 9z"/>
<path d="M3964 3258 c-3 -4 4 -12 15 -17 27 -15 591 -15 591 -1 0 6 -6 13 -12
15 -22 8 -590 10 -594 3z"/>
<path d="M5177 3254 c-19 -20 28 -24 269 -24 208 0 265 3 262 13 -4 9 -67 13
-264 15 -143 1 -263 -1 -267 -4z"/>
<path d="M215 3218 c-3 -7 -4 -112 -3 -233 3 -212 4 -220 23 -220 19 0 20 7
20 230 0 211 -1 230 -18 233 -9 2 -19 -3 -22 -10z"/>
<path d="M2140 3210 c-36 -8 -280 -28 -478 -39 -148 -8 -148 -26 1 -26 130 1
420 21 490 35 26 6 93 10 148 10 76 0 100 3 97 13 -5 14 -202 20 -258 7z"/>
<path d="M8167 3123 c-3 -5 -1 -65 5 -133 5 -69 13 -165 16 -214 5 -63 11 -91
21 -94 14 -5 14 34 -8 316 -7 103 -20 148 -34 125z"/>
<path d="M915 3096 c-17 -7 -93 -16 -175 -20 -232 -12 -315 -20 -312 -31 5
-20 461 0 504 21 15 8 39 14 53 14 37 0 27 24 -11 27 -16 2 -42 -3 -59 -11z"/>
<path d="M1377 2843 c-3 -5 -6 -116 -8 -247 -3 -168 -1 -240 7 -243 14 -5 24
131 24 333 0 133 -7 184 -23 157z"/>
<path d="M8672 2672 c-18 -4 -34 -11 -35 -17 -1 -6 70 -10 198 -10 110 0 267
-4 349 -9 126 -8 148 -7 144 5 -3 10 -33 16 -109 21 -171 11 -512 17 -547 10z"/>
<path d="M4435 2638 c-257 -8 -347 -17 -343 -33 2 -5 26 -9 53 -9 265 8 679
25 683 28 2 3 1 9 -3 15 -7 12 -21 12 -390 -1z"/>
<path d="M3380 2609 c-102 -4 -218 -13 -258 -19 -41 -7 -157 -10 -262 -9 -104
2 -192 0 -196 -4 -30 -29 245 -33 626 -9 102 7 227 15 278 18 64 4 92 10 89
17 -5 15 -51 16 -277 6z"/>
<path d="M6337 2611 c-21 -3 -39 -10 -40 -15 -2 -9 863 -9 871 -1 2 2 1 8 -3
14 -7 12 -757 13 -828 2z"/>
<path d="M3793 2595 c-12 -33 -10 -588 3 -592 8 -3 13 83 17 294 5 274 0 348
-20 298z"/>
<path d="M5390 2600 c-251 -7 -258 -24 -13 -28 190 -3 247 2 240 21 -4 15 11
14 -227 7z"/>
<path d="M2340 2569 c-25 -5 -163 -12 -305 -16 -168 -5 -258 -12 -255 -18 7
-14 474 -10 583 6 55 7 86 16 84 23 -5 14 -50 17 -107 5z"/>
<path d="M4956 2572 c-3 -5 -1 -34 4 -63 6 -30 13 -123 18 -208 5 -116 10
-156 21 -159 11 -4 12 26 6 174 -4 99 -11 196 -16 216 -10 38 -24 55 -33 40z"/>
<path d="M8010 2541 c-15 -9 -161 -23 -383 -37 -101 -6 -138 -17 -103 -30 18
-7 356 14 436 26 102 17 121 22 117 34 -5 14 -47 19 -67 7z"/>
<path d="M7286 2521 c-4 -6 -4 -16 0 -22 4 -6 9 -97 13 -202 5 -150 9 -191 20
-195 21 -7 11 393 -11 415 -11 10 -18 11 -22 4z"/>
<path d="M527 2451 c-37 -3 -67 -10 -67 -16 0 -6 66 -10 178 -10 97 0 256 -4
353 -9 174 -9 234 -5 227 15 -2 6 -66 11 -163 13 -88 2 -227 6 -310 9 -82 2
-180 2 -218 -2z"/>
<path d="M2737 2403 c-13 -22 24 -378 42 -396 19 -19 22 -1 10 84 -6 46 -14
132 -18 191 -5 95 -19 146 -34 121z"/>
<path d="M9475 2398 c-2 -7 -9 -109 -15 -227 -11 -216 -9 -240 23 -228 16 6
25 125 30 357 2 92 0 105 -16 108 -9 2 -19 -2 -22 -10z"/>
<path d="M6006 2378 c-2 -7 -7 -142 -10 -300 -4 -200 -3 -289 5 -293 5 -4 12
-5 15 -3 2 3 7 138 11 300 5 220 3 297 -5 302 -7 4 -14 1 -16 -6z"/>
<path d="M8235 2319 c-3 -8 -2 -133 2 -278 7 -214 11 -265 22 -269 12 -4 13
35 8 269 -6 246 -15 322 -32 278z"/>
<path d="M315 2178 c-3 -7 -4 -108 -3 -223 3 -202 4 -210 23 -210 19 0 20 7
20 220 0 201 -1 220 -18 223 -9 2 -19 -3 -22 -10z"/>
<path d="M8585 1989 c-131 -13 -190 -23 -190 -34 0 -15 104 -18 121 -4 10 8
109 13 334 17 228 3 320 8 317 16 -4 13 -458 17 -582 5z"/>
<path d="M6177 1984 c-4 -4 -4 -11 -1 -15 3 -5 199 -9 435 -9 340 0 430 3 427
13 -4 9 -100 13 -430 15 -233 1 -427 -1 -431 -4z"/>
<path d="M7745 1956 c-89 -12 -104 -32 -22 -29 28 1 148 5 265 9 152 4 212 9
209 18 -5 15 -346 17 -452 2z"/>
<path d="M5194 1948 c-14 -22 16 -28 129 -28 188 0 348 11 344 24 -4 13 -466
16 -473 4z"/>
<path d="M3076 1941 c-4 -5 -1 -13 6 -17 14 -9 397 -28 405 -21 17 17 -22 26
-144 31 -76 3 -166 9 -200 11 -34 3 -64 1 -67 -4z"/>
<path d="M3943 1927 c-13 -21 68 -27 341 -25 224 2 291 6 291 15 0 10 -71 13
-313 15 -173 2 -316 0 -319 -5z"/>
<path d="M1366 1922 c-5 -8 -24 -208 -29 -306 -3 -41 19 -44 27 -4 14 68 27
301 18 310 -6 6 -12 6 -16 0z"/>
<path d="M2170 1871 c-107 -4 -201 -10 -208 -14 -7 -5 -108 -12 -224 -17 -192
-8 -247 -17 -220 -34 13 -8 427 12 482 24 25 5 104 9 176 10 184 0 315 11 311
24 -4 13 -64 15 -317 7z"/>
<path d="M4995 1848 c-3 -8 -4 -101 -3 -207 2 -145 6 -195 16 -199 15 -5 18
403 2 413 -6 3 -12 0 -15 -7z"/>
<path d="M886 1823 c-4 -5 -95 -10 -202 -13 -254 -7 -265 -24 -16 -28 187 -3
247 4 247 28 0 16 -18 24 -29 13z"/>
<path d="M7305 1788 c-3 -8 -4 -94 -3 -193 2 -132 6 -179 16 -183 15 -5 18
373 2 383 -6 3 -12 0 -15 -7z"/>
<path d="M9455 1500 c-9 -15 15 -783 25 -794 5 -5 16 -6 25 -2 14 5 15 32 9
273 -11 453 -16 527 -36 531 -9 2 -19 -2 -23 -8z"/>
<path d="M2736 1483 c-9 -9 -6 -130 4 -188 5 -27 16 -97 25 -155 23 -162 50
-283 63 -288 18 -6 15 51 -7 138 -10 41 -22 108 -25 148 -4 41 -14 104 -22
140 -7 37 -14 97 -14 134 0 62 -8 87 -24 71z"/>
<path d="M3836 1429 c-3 -8 -7 -130 -8 -272 -3 -224 -1 -257 12 -255 13 3 15
41 18 262 1 161 -1 263 -7 269 -7 7 -12 5 -15 -4z"/>
<path d="M8278 1433 c-8 -14 11 -225 22 -257 6 -18 10 -102 9 -201 -1 -148 1
-170 15 -173 14 -3 16 16 16 165 0 110 -5 192 -15 238 -8 39 -15 102 -15 141
0 49 -4 75 -14 83 -8 7 -16 8 -18 4z"/>
<path d="M3117 1364 c-20 -20 32 -24 309 -24 240 0 305 3 302 13 -4 9 -75 13
-305 15 -164 1 -302 -1 -306 -4z"/>
<path d="M4127 1361 c-42 -3 -78 -10 -80 -16 -1 -6 113 -10 316 -11 232 -1
317 1 314 10 -6 19 -364 30 -550 17z"/>
<path d="M5435 1343 c-103 -4 -124 -8 -107 -25 15 -15 384 0 379 16 -4 12
-105 15 -272 9z"/>
<path d="M6126 1341 c-4 -5 -3 -12 2 -15 5 -3 180 -8 390 -12 292 -5 382 -4
382 5 0 6 -6 13 -12 16 -32 9 -756 16 -762 6z"/>
<path d="M255 1318 c-3 -7 -4 -135 -3 -283 3 -262 4 -270 23 -270 20 0 20 7
20 280 0 259 -1 280 -18 283 -9 2 -19 -3 -22 -10z"/>
<path d="M6009 1316 c-2 -2 -2 -109 1 -237 4 -175 8 -233 18 -237 10 -3 12 45
10 234 -3 218 -8 261 -29 240z"/>
<path d="M1827 1304 c-19 -20 26 -24 244 -24 188 0 240 3 237 13 -4 9 -62 13
-239 15 -130 1 -238 -1 -242 -4z"/>
<path d="M8362 1282 c-13 -4 -22 -11 -20 -16 3 -8 898 -9 906 -1 2 2 1 8 -3
14 -7 12 -842 14 -883 3z"/>
<path d="M7825 1253 c-11 -3 -25 -9 -31 -14 -6 -5 -40 -12 -75 -15 -35 -3 -73
-9 -84 -14 -11 -5 -59 -11 -108 -14 -92 -5 -111 -11 -101 -28 4 -6 31 -7 74
-3 56 6 68 4 73 -9 8 -19 37 -21 37 -3 0 17 55 34 133 42 32 4 70 13 85 21 18
9 60 14 125 14 75 0 98 3 95 13 -5 12 -181 21 -223 10z"/>
<path d="M4987 1243 c-5 -8 0 -105 17 -338 3 -47 8 -61 22 -64 15 -3 16 4 10
67 -4 38 -11 127 -15 197 -8 114 -19 162 -34 138z"/>
<path d="M1325 1218 c-3 -8 -4 -68 -3 -133 2 -84 7 -120 16 -123 15 -5 18 253
2 263 -6 3 -13 0 -15 -7z"/>
<path d="M1148 1185 c-3 -3 -177 -9 -387 -13 -246 -5 -380 -11 -379 -17 2 -6
138 -9 387 -8 377 2 422 6 395 33 -6 6 -13 8 -16 5z"/>
<path d="M7326 1062 c-3 -6 1 -59 10 -119 9 -59 20 -153 23 -207 4 -71 10
-101 20 -104 17 -6 10 176 -13 322 -14 96 -27 129 -40 108z"/>
<path d="M3513 454 c-3 -8 -2 -19 3 -24 11 -11 920 -73 934 -65 14 9 12 35 -2
40 -10 3 -886 65 -923 65 -3 0 -8 -7 -12 -16z"/>
<path d="M1590 390 c-74 -10 -179 -24 -233 -30 -98 -12 -125 -26 -99 -52 11
-11 501 47 516 62 15 15 -2 40 -26 39 -13 -1 -84 -9 -158 -19z"/>
<path d="M2193 394 c-3 -8 -1 -20 4 -25 5 -5 173 -8 424 -7 406 3 414 3 414
23 0 20 -8 20 -418 23 -373 2 -418 1 -424 -14z"/>
<path d="M4814 396 c-4 -10 -3 -21 2 -26 13 -13 1024 -34 1037 -21 5 5 7 16 4
24 -6 15 18 14 -774 33 -241 6 -263 5 -269 -10z"/>
<path d="M253 375 c-11 -31 13 -36 178 -33 156 3 164 4 164 23 0 19 -8 20
-168 23 -146 2 -168 0 -174 -13z"/>
<path d="M7065 378 c-266 -4 -483 -12 -488 -17 -6 -6 -7 -17 -3 -26 5 -14 45
-15 433 -9 236 3 527 9 648 13 211 6 220 7 220 26 0 19 -7 20 -165 21 -91 1
-381 -3 -645 -8z"/>
<path d="M8573 354 c-3 -8 -1 -20 4 -25 5 -5 192 -8 474 -7 456 3 464 3 464
23 0 20 -8 20 -468 23 -418 2 -468 1 -474 -14z"/>
</g>
</svg>
