<?xml version="1.0" standalone="no"?>
<!DOCTYPE svg PUBLIC "-//W3C//DTD SVG 20010904//EN"
 "http://www.w3.org/TR/2001/REC-SVG-20010904/DTD/svg10.dtd">
<svg version="1.0" xmlns="http://www.w3.org/2000/svg"
 width="1000.000000pt" height="968.000000pt" viewBox="0 0 1000.000000 968.000000"
 preserveAspectRatio="xMidYMid meet">
<metadata>
Created by potrace 1.14, written by Peter Selinger 2001-2017
</metadata>
<g transform="translate(0.000000,968.000000) scale(0.100000,-0.100000)"
fill="#000000" stroke="none">
<path d="M7909 9625 c-7 -6 -502 -75 -619 -86 -173 -16 -235 -24 -250 -34 -8
-5 -189 -13 -405 -18 -741 -15 -915 -22 -985 -41 -89 -24 -485 -35 -521 -15
-13 7 -60 17 -104 20 -44 4 -111 14 -150 23 -61 14 -180 16 -931 16 l-861 0
-29 23 c-28 22 -34 22 -409 28 -320 4 -400 9 -505 26 -263 44 -295 45 -945 39
-341 -4 -695 -9 -787 -12 -108 -3 -175 -1 -187 5 -16 9 -25 5 -50 -20 -36 -35
-39 -53 -12 -72 19 -13 20 -31 23 -503 4 -469 5 -491 25 -544 12 -30 27 -80
34 -110 6 -30 20 -71 29 -90 10 -19 32 -67 49 -105 l32 -70 -4 -345 c-5 -365
-12 -447 -44 -520 -39 -86 -45 -163 -39 -540 15 -879 17 -1925 5 -1965 -9 -30
-14 -450 -20 -1710 -4 -918 -11 -1697 -14 -1730 -4 -33 -11 -64 -16 -70 -5 -5
-9 -39 -9 -75 0 -36 -5 -71 -12 -78 -6 -6 -15 -30 -19 -54 -4 -24 -13 -63 -19
-88 -7 -25 -15 -72 -19 -105 -7 -57 -33 -134 -68 -200 -28 -51 -53 -269 -35
-300 5 -10 27 -25 48 -33 34 -14 168 -16 1089 -16 821 -1 1055 -4 1072 -13 12
-7 35 -13 52 -13 16 0 32 -4 35 -9 11 -16 90 -24 261 -23 200 0 266 7 320 32
22 10 63 23 90 28 28 6 97 27 155 48 l105 39 217 3 217 4 73 -37 c40 -20 84
-48 99 -61 14 -13 37 -24 52 -24 15 0 46 -9 67 -20 38 -20 55 -20 393 -18 292
3 366 6 434 21 71 15 120 17 350 13 288 -5 380 -11 402 -29 9 -8 109 -14 305
-18 329 -8 420 -17 490 -49 48 -22 58 -22 265 -18 194 4 219 7 251 25 19 12
70 28 113 38 43 9 95 23 114 31 33 14 101 34 313 89 93 25 100 25 509 25 406
0 449 -3 506 -33 11 -6 43 -21 70 -34 28 -13 58 -28 67 -33 10 -6 32 -10 49
-10 16 0 40 -5 52 -12 21 -11 47 -17 157 -37 25 -4 59 -14 75 -21 91 -39 495
-60 640 -33 60 11 150 47 161 64 3 5 11 9 19 9 23 0 87 48 101 76 11 20 14 93
14 325 0 188 4 300 10 304 6 4 10 137 10 366 0 270 3 366 13 382 9 17 11 136
8 527 -3 449 -5 515 -22 594 -10 49 -19 130 -19 180 -1 50 -5 111 -11 136 -40
178 -40 1695 0 1905 5 28 10 208 10 400 1 193 5 355 9 360 4 6 14 28 21 50 8
22 20 45 27 50 7 6 22 27 33 48 21 37 21 49 21 586 0 508 -1 552 -19 602 -10
30 -21 81 -26 114 -4 33 -20 94 -35 135 -16 41 -43 145 -60 230 -18 85 -57
233 -87 329 l-55 174 10 76 c6 42 16 96 23 121 9 32 14 172 16 498 3 437 3
453 -17 492 -11 21 -20 49 -20 61 0 13 -20 41 -49 70 -47 46 -51 48 -132 58
-46 6 -104 16 -129 22 -25 6 -87 14 -138 16 -78 4 -99 8 -129 29 -20 13 -46
24 -58 24 -11 0 -40 9 -63 20 -22 11 -52 20 -65 20 -14 0 -44 7 -67 15 -23 8
-60 15 -81 15 -21 0 -41 5 -44 10 -3 6 -28 10 -55 10 -27 0 -52 5 -55 10 -6
10 -697 15 -706 5z m721 -65 c131 -19 145 -21 165 -30 21 -9 45 -14 129 -30
27 -5 54 -14 60 -20 5 -5 22 -10 37 -10 15 0 41 -11 57 -25 27 -22 39 -25 115
-25 50 0 111 -7 144 -16 32 -10 81 -19 108 -21 28 -3 54 -9 59 -14 6 -5 21 -9
34 -9 28 0 92 -57 92 -83 0 -10 9 -36 20 -57 20 -39 20 -55 17 -473 -2 -310
-7 -445 -16 -477 -7 -25 -15 -63 -18 -85 -3 -22 -9 -44 -14 -50 -22 -23 -13
-63 72 -330 21 -66 47 -168 59 -225 28 -142 38 -181 71 -280 15 -47 31 -107
34 -135 4 -27 13 -69 21 -93 11 -35 14 -150 14 -603 l0 -560 -24 -22 c-12 -12
-34 -44 -47 -72 -24 -49 -24 -56 -30 -430 -3 -209 -11 -425 -17 -480 -36 -328
-41 -1545 -6 -1750 8 -49 18 -156 23 -236 4 -80 12 -152 17 -160 5 -8 12 -192
16 -409 4 -217 10 -448 13 -512 5 -87 3 -123 -7 -140 -10 -17 -15 -120 -21
-403 -4 -209 -10 -517 -15 -685 -8 -345 -8 -344 -85 -381 -23 -11 -60 -30 -82
-41 -22 -12 -65 -26 -95 -31 -82 -14 -360 -20 -400 -8 -19 5 -62 15 -95 21
-33 6 -80 16 -105 22 -42 10 -63 14 -172 37 -24 4 -56 13 -71 20 -16 6 -39 11
-53 11 -26 0 -158 62 -169 80 -3 5 -17 10 -30 10 -13 0 -27 5 -30 10 -4 6
-169 10 -461 10 -361 0 -465 -3 -502 -14 -26 -8 -101 -28 -167 -45 -66 -17
-140 -39 -165 -47 -25 -9 -87 -27 -138 -40 -52 -13 -99 -27 -105 -32 -19 -16
-92 -23 -265 -28 -151 -5 -166 -4 -220 17 -84 33 -166 41 -481 45 -228 4 -288
7 -304 19 -12 8 -43 15 -69 15 -26 0 -50 4 -53 10 -10 17 -596 12 -675 -5 -95
-21 -764 -21 -800 0 -14 8 -35 14 -48 15 -12 0 -41 13 -64 30 -22 16 -45 30
-49 30 -4 0 -28 14 -52 30 l-45 30 -224 0 c-245 0 -271 -4 -436 -65 -51 -19
-106 -35 -123 -35 -16 0 -48 -9 -71 -21 -36 -19 -64 -22 -237 -26 -189 -5
-221 -3 -341 27 -120 30 -168 33 -502 31 -869 -3 -1357 -1 -1528 7 -102 4
-186 9 -188 10 -4 2 4 109 14 189 3 29 12 57 20 64 8 6 14 20 14 31 0 10 10
38 22 61 11 23 25 71 29 107 4 36 13 85 19 110 6 25 15 64 19 87 4 23 13 48
18 55 6 7 14 45 17 83 9 123 18 180 27 190 5 5 9 583 9 1406 0 1068 3 1404 12
1426 9 21 12 381 13 1523 1 1442 1 1496 19 1530 46 85 49 115 53 537 5 401 5
402 -17 431 -40 53 -75 151 -133 367 -7 25 -12 221 -14 527 l-3 487 192 5
c106 4 457 9 779 12 623 6 677 3 979 -46 108 -17 173 -20 471 -20 302 0 348
-2 360 -16 37 -45 17 -44 946 -44 572 -1 894 -5 923 -11 25 -6 81 -13 125 -16
56 -4 88 -11 107 -24 23 -17 45 -19 185 -19 152 0 244 10 418 44 62 12 205 18
645 26 581 10 680 14 715 30 11 5 45 11 75 14 203 19 277 27 370 41 58 8 141
20 185 25 44 6 103 14 130 19 67 12 713 12 795 1z"/>
</g>
</svg>
