<?xml version="1.0" standalone="no"?>
<!DOCTYPE svg PUBLIC "-//W3C//DTD SVG 20010904//EN"
 "http://www.w3.org/TR/2001/REC-SVG-20010904/DTD/svg10.dtd">
<svg version="1.0" xmlns="http://www.w3.org/2000/svg"
 width="569.000000pt" height="551.000000pt" viewBox="0 0 569.000000 551.000000"
 preserveAspectRatio="xMidYMid meet">
<metadata>
Created by potrace 1.14, written by Peter Selinger 2001-2017
</metadata>
<g transform="translate(0.000000,551.000000) scale(0.100000,-0.100000)"
fill="#000000" stroke="none">
<path d="M4330 5456 c-303 -44 -447 -55 -745 -61 -186 -4 -332 -12 -384 -21
-93 -16 -272 -19 -286 -5 -20 18 -130 23 -639 27 -434 4 -522 7 -540 19 -16
12 -60 15 -212 15 -144 0 -226 5 -331 21 -129 20 -168 21 -611 16 -420 -4
-475 -6 -490 -21 -13 -12 -14 -18 -4 -28 9 -9 12 -83 12 -272 0 -244 2 -267
24 -346 13 -47 36 -112 51 -145 l27 -60 -4 -215 c-4 -187 -7 -220 -24 -255
-18 -38 -19 -68 -19 -740 -1 -385 -4 -1121 -8 -1635 -7 -873 -14 -1098 -37
-1155 -13 -30 -30 -111 -30 -138 0 -14 -11 -50 -25 -81 -16 -35 -28 -86 -32
-131 -5 -69 -5 -73 18 -86 19 -11 137 -14 619 -15 542 0 602 -2 670 -18 60
-15 99 -18 194 -13 65 3 123 10 129 16 6 6 19 11 28 11 9 0 57 13 107 30 81
26 105 30 209 30 118 0 119 0 169 -34 29 -18 64 -37 80 -41 34 -10 386 -10
639 0 128 5 196 3 235 -5 30 -7 145 -16 255 -20 155 -6 210 -11 243 -25 36
-15 64 -17 160 -13 65 3 126 10 137 16 11 7 45 18 75 26 30 8 105 28 165 45
109 31 112 31 358 31 247 0 249 0 305 -26 58 -27 80 -34 187 -60 164 -39 221
-46 330 -41 99 4 117 8 178 37 37 18 71 40 76 49 5 9 12 185 16 391 4 206 11
391 15 410 10 39 -5 581 -19 725 -28 277 -35 527 -21 853 7 180 16 424 20 542
6 204 13 260 30 260 26 0 31 67 27 381 -2 255 -7 337 -19 384 -9 33 -28 107
-42 165 -14 58 -42 158 -62 223 l-35 119 15 77 c21 103 23 546 2 604 -27 78
-76 100 -256 114 -36 3 -70 9 -75 14 -21 16 -145 51 -249 69 -105 18 -433 10
-606 -14z m596 -16 c103 -18 227 -52 249 -69 5 -5 42 -11 80 -15 168 -14 213
-33 233 -98 19 -60 16 -480 -4 -582 l-17 -83 33 -103 c17 -57 40 -144 51 -194
11 -50 26 -111 34 -136 42 -127 45 -164 45 -479 0 -283 -1 -310 -18 -332 -34
-44 -37 -63 -43 -284 -3 -121 -12 -368 -19 -549 -13 -329 -7 -606 21 -856 14
-132 29 -671 19 -705 -5 -16 -11 -198 -15 -404 -4 -206 -9 -380 -12 -388 -3
-8 -33 -28 -66 -45 -53 -26 -75 -31 -162 -35 -99 -5 -158 3 -320 41 -106 26
-129 33 -185 60 -55 26 -56 26 -313 26 -231 0 -265 -2 -335 -21 -124 -34 -134
-37 -207 -59 -106 -33 -143 -39 -231 -40 -54 0 -95 6 -120 16 -29 13 -89 19
-239 24 -110 4 -224 13 -253 20 -36 7 -112 9 -230 6 -656 -21 -612 -24 -726
42 l-58 34 -142 -4 c-123 -4 -150 -8 -210 -31 -37 -15 -78 -27 -90 -27 -12 0
-27 -5 -33 -11 -5 -5 -59 -13 -119 -16 -88 -4 -129 -1 -214 17 -102 21 -120
21 -545 15 -242 -3 -501 -2 -575 2 l-135 8 2 60 c1 33 6 69 11 80 34 75 42 99
42 121 0 28 17 108 30 139 23 57 30 282 37 1155 4 514 7 1250 8 1635 0 672 1
702 19 740 17 35 20 68 24 266 l4 227 -30 63 c-63 132 -72 194 -72 489 l0 267
173 6 c324 13 733 8 847 -9 61 -10 200 -18 330 -21 150 -3 230 -9 239 -16 10
-9 164 -14 545 -19 520 -6 621 -11 641 -29 14 -14 215 -11 297 5 47 9 185 16
383 20 308 7 450 18 755 62 173 24 482 32 586 14z"/>
</g>
</svg>
