<?xml version="1.0" standalone="no"?>
<!DOCTYPE svg PUBLIC "-//W3C//DTD SVG 20010904//EN"
 "http://www.w3.org/TR/2001/REC-SVG-20010904/DTD/svg10.dtd">
<svg version="1.0" xmlns="http://www.w3.org/2000/svg"
 width="249.000000pt" height="212.000000pt" viewBox="0 0 249.000000 212.000000"
 preserveAspectRatio="xMidYMid meet">
<metadata>
Created by potrace 1.14, written by Peter Selinger 2001-2017
</metadata>
<g transform="translate(0.000000,212.000000) scale(0.100000,-0.100000)"
fill="#000000" stroke="none">
<path d="M337 1966 c-48 -13 -87 -40 -75 -51 3 -4 28 1 55 11 26 9 81 19 121
22 80 5 89 -3 54 -49 -22 -28 -72 -118 -72 -129 0 -4 -23 -42 -51 -84 -41 -61
-49 -80 -39 -89 9 -9 15 -8 24 7 6 10 30 45 54 77 23 33 42 66 42 74 0 9 9 29
20 45 11 17 30 44 42 62 13 19 22 48 22 73 l1 40 -75 2 c-41 1 -97 -4 -123
-11z"/>
</g>
</svg>
