<?xml version="1.0" standalone="no"?>
<!DOCTYPE svg PUBLIC "-//W3C//DTD SVG 20010904//EN"
 "http://www.w3.org/TR/2001/REC-SVG-20010904/DTD/svg10.dtd">
<svg version="1.0" xmlns="http://www.w3.org/2000/svg"
 width="1614.000000pt" height="1300.000000pt" viewBox="0 0 1614.000000 1300.000000"
 preserveAspectRatio="xMidYMid meet">
<metadata>
Created by potrace 1.14, written by Peter Selinger 2001-2017
</metadata>
<g transform="translate(0.000000,1300.000000) scale(0.100000,-0.100000)"
fill="#000000" stroke="none">
<path d="M6775 11694 c-27 -8 -99 -18 -160 -23 -75 -6 -134 -17 -184 -35 -41
-14 -89 -26 -107 -26 -62 0 -290 -93 -337 -138 -18 -16 -50 -39 -72 -50 -48
-25 -332 -310 -365 -367 -13 -22 -49 -76 -80 -120 -32 -44 -72 -109 -90 -145
-18 -36 -101 -165 -184 -288 -194 -285 -332 -501 -403 -627 -30 -55 -83 -145
-117 -200 -34 -55 -79 -138 -100 -185 -53 -119 -100 -202 -166 -295 -40 -56
-65 -105 -85 -165 -15 -47 -47 -121 -72 -165 -33 -59 -59 -130 -99 -269 -30
-104 -54 -193 -54 -197 0 -5 -23 -60 -51 -122 -62 -136 -116 -293 -170 -492
-22 -82 -65 -233 -95 -335 -71 -244 -130 -532 -144 -700 -6 -74 -23 -202 -37
-285 -19 -114 -27 -198 -30 -351 -5 -183 -3 -210 17 -300 35 -153 182 -517
352 -869 139 -288 170 -344 311 -558 87 -131 208 -305 271 -386 62 -82 136
-181 164 -222 32 -47 101 -123 193 -209 79 -74 203 -191 275 -260 71 -69 157
-142 190 -163 32 -21 133 -98 224 -172 91 -74 189 -149 218 -167 30 -18 82
-54 116 -80 62 -47 158 -88 341 -144 44 -13 190 -42 325 -63 236 -38 257 -39
575 -46 625 -12 788 -21 974 -49 100 -15 259 -30 375 -36 274 -13 781 -13 831
1 30 8 65 36 145 114 89 87 164 144 485 366 362 251 402 275 850 525 831 463
1417 828 1615 1006 131 120 159 158 334 470 l127 226 80 249 c43 136 106 352
139 479 60 231 187 589 260 734 41 82 120 191 187 261 47 49 54 61 51 90 -2
26 -8 34 -23 34 -14 0 -21 -8 -23 -25 -2 -14 -25 -47 -52 -75 -67 -70 -141
-176 -187 -270 -79 -158 -200 -502 -267 -755 -36 -135 -99 -349 -140 -477 -72
-226 -77 -237 -192 -440 -181 -321 -201 -349 -326 -462 -195 -176 -817 -564
-1623 -1011 -417 -231 -460 -258 -830 -513 -338 -233 -404 -284 -498 -376
l-107 -106 -263 -3 c-362 -5 -718 12 -931 45 -186 28 -371 37 -961 48 -330 6
-347 8 -590 45 -329 52 -540 115 -645 195 -30 23 -86 62 -125 87 -38 24 -139
101 -223 169 -84 68 -186 147 -227 175 -40 28 -167 141 -282 251 -114 110
-228 217 -252 239 -24 21 -61 65 -84 99 -22 33 -99 136 -170 229 -71 92 -199
274 -284 404 -136 207 -172 271 -300 536 -160 332 -323 731 -353 867 -35 156
-26 416 25 708 8 47 19 145 25 216 13 156 75 462 137 669 25 83 62 219 84 301
56 210 124 412 180 533 27 57 53 122 59 145 61 232 106 371 147 445 24 46 58
121 73 168 19 55 48 112 84 163 59 84 127 208 172 311 16 36 54 106 85 155 30
50 77 128 102 175 65 118 223 366 407 637 85 125 175 265 200 310 103 187 181
293 335 451 93 95 167 162 195 177 25 12 54 33 65 45 36 40 257 130 320 130
17 0 71 14 120 30 63 21 108 30 154 30 36 0 103 9 149 20 75 18 118 20 425 20
228 0 384 -5 467 -14 199 -23 523 -83 676 -127 167 -47 232 -71 368 -139 56
-27 214 -93 351 -146 249 -96 659 -291 890 -424 210 -120 337 -182 535 -258
113 -44 235 -89 272 -100 71 -21 212 -98 243 -132 10 -11 24 -20 30 -20 18 0
27 -33 35 -120 4 -41 17 -124 30 -185 38 -190 42 -217 49 -365 l6 -145 40 -8
c22 -4 61 -10 87 -14 27 -3 54 -13 64 -24 9 -11 23 -19 31 -19 15 0 15 19 -3
-620 -3 -113 -10 -209 -15 -214 -5 -6 -9 -24 -9 -42 0 -29 -22 -84 -102 -254
-17 -36 -46 -109 -64 -163 -18 -54 -55 -139 -83 -188 -27 -48 -66 -139 -87
-201 -20 -62 -64 -167 -96 -232 -33 -66 -91 -192 -130 -280 -109 -252 -223
-452 -346 -609 -56 -71 -241 -209 -406 -302 -74 -42 -198 -137 -276 -210 -36
-34 -101 -90 -145 -125 -44 -35 -86 -72 -94 -84 -30 -45 -85 -95 -111 -101
-15 -3 -38 -17 -50 -30 -12 -13 -35 -27 -50 -30 -15 -3 -38 -17 -50 -30 -12
-13 -34 -27 -49 -30 -15 -3 -50 -23 -79 -45 -31 -24 -63 -40 -79 -40 -15 0
-39 -11 -54 -26 -22 -21 -42 -28 -101 -35 -40 -4 -95 -15 -122 -23 -76 -24
-282 -67 -381 -78 -49 -6 -241 -13 -427 -15 -299 -4 -340 -2 -375 13 -47 21
-112 33 -224 43 -68 5 -95 12 -125 32 -22 14 -64 34 -94 44 -138 45 -205 92
-394 281 -138 137 -216 228 -216 253 0 11 -4 23 -10 26 -5 3 -10 17 -10 30 0
27 -38 127 -94 245 -19 42 -39 96 -45 120 -43 178 -81 377 -81 417 0 27 -9 91
-21 143 -19 88 -20 119 -16 420 5 333 14 467 41 647 9 57 16 134 16 173 0 38
9 125 20 192 11 68 25 152 31 188 18 111 20 118 41 145 35 45 118 215 179 368
68 170 139 317 164 337 10 8 26 33 37 55 39 84 138 198 220 253 57 38 156 98
203 123 55 29 243 147 282 177 18 13 67 33 110 44 42 11 95 30 117 43 23 13
79 35 126 48 47 13 133 39 192 56 l108 32 372 -4 c205 -2 400 -9 433 -15 78
-14 264 -79 290 -102 11 -10 40 -26 65 -37 26 -11 87 -58 138 -106 51 -48 97
-87 102 -87 5 0 11 -14 15 -31 4 -18 19 -38 39 -51 30 -20 81 -95 100 -148 4
-14 23 -41 41 -60 18 -19 36 -46 40 -60 4 -14 28 -65 53 -115 55 -110 63 -156
69 -393 4 -166 2 -189 -16 -245 -12 -33 -21 -75 -21 -92 0 -41 -33 -137 -60
-174 -12 -18 -20 -45 -20 -70 0 -40 -39 -132 -81 -192 -10 -14 -26 -55 -35
-90 -10 -35 -28 -77 -41 -94 -13 -16 -39 -49 -58 -72 -18 -24 -35 -46 -37 -51
-1 -4 -28 -24 -58 -45 -30 -20 -66 -45 -80 -56 -52 -38 -132 -81 -151 -81 -11
0 -50 -15 -87 -34 -37 -18 -78 -37 -92 -41 -14 -4 -36 -18 -50 -31 -14 -12
-45 -29 -70 -35 -59 -17 -330 -17 -390 0 -25 7 -60 15 -79 18 -19 3 -49 14
-65 24 -17 11 -40 19 -51 19 -35 0 -125 107 -125 149 0 11 -4 23 -10 26 -5 3
-10 17 -10 30 0 13 -4 27 -10 30 -6 4 -10 81 -10 197 0 167 3 201 21 262 34
111 62 173 84 182 11 5 24 19 29 30 6 12 24 27 42 34 18 7 42 26 54 42 14 19
29 28 49 28 16 0 36 9 47 21 10 12 46 35 79 51 33 17 68 38 79 47 10 9 43 18
75 21 48 4 56 8 56 25 0 17 -8 20 -55 23 -46 2 -62 -1 -94 -23 -21 -14 -64
-39 -95 -54 -31 -16 -63 -36 -70 -45 -8 -9 -22 -16 -33 -16 -26 0 -57 -18 -91
-52 -16 -15 -34 -28 -41 -28 -15 0 -106 -92 -106 -108 0 -6 -9 -31 -19 -54
-53 -119 -61 -173 -61 -391 0 -126 4 -208 10 -212 6 -3 10 -17 10 -30 0 -13 5
-27 10 -30 6 -3 10 -15 10 -26 0 -45 120 -179 161 -179 14 0 37 -8 50 -19 13
-10 42 -21 64 -24 22 -3 60 -11 85 -18 27 -8 108 -13 205 -13 171 -1 244 12
288 51 29 26 193 103 219 103 22 0 150 71 188 105 14 12 49 37 78 55 28 18 52
37 52 41 0 6 22 35 93 124 13 17 32 56 41 87 9 32 41 104 71 161 39 73 55 115
55 142 0 21 9 52 20 70 28 45 60 141 60 180 0 17 9 59 21 92 18 56 20 79 16
250 -6 251 -14 289 -81 431 -31 64 -56 122 -56 128 0 5 -15 25 -34 43 -19 18
-37 45 -41 59 -11 44 -74 137 -104 155 -18 10 -32 29 -36 47 -4 17 -16 35 -28
42 -12 6 -55 43 -97 82 -84 81 -123 110 -160 121 -14 4 -36 17 -50 30 -14 12
-43 27 -65 33 -22 6 -71 23 -110 37 -110 43 -166 48 -571 52 l-381 4 -104 -31
c-57 -17 -151 -44 -208 -61 -57 -17 -120 -41 -140 -54 -20 -12 -70 -31 -111
-41 -52 -12 -90 -29 -125 -54 -56 -41 -296 -185 -375 -225 -19 -10 -49 -30
-67 -44 -18 -14 -50 -39 -73 -56 -52 -38 -67 -53 -105 -105 -16 -23 -42 -55
-56 -73 -15 -18 -30 -43 -34 -57 -4 -14 -18 -36 -30 -50 -33 -36 -105 -185
-176 -362 -33 -84 -75 -178 -94 -210 -18 -31 -36 -67 -40 -80 -4 -12 -18 -34
-30 -48 -26 -28 -39 -70 -54 -175 -6 -38 -19 -122 -31 -186 -11 -65 -20 -151
-20 -193 0 -42 -7 -122 -16 -179 -28 -180 -36 -315 -41 -652 -4 -306 -3 -337
16 -425 12 -52 21 -116 21 -143 0 -40 38 -239 81 -417 6 -24 26 -78 45 -120
59 -125 94 -219 94 -250 0 -16 5 -32 10 -35 6 -3 10 -15 10 -27 0 -32 236
-285 396 -424 59 -52 164 -110 239 -134 22 -7 65 -26 95 -43 44 -25 72 -33
140 -39 111 -9 176 -21 223 -42 34 -15 76 -17 385 -13 434 5 551 19 810 92 50
14 109 25 132 25 46 0 99 19 119 43 7 10 27 17 43 17 20 0 43 11 66 31 20 18
56 41 81 52 26 11 59 30 74 43 16 13 35 24 42 24 7 0 26 11 42 24 15 13 44 30
63 38 31 14 102 81 126 119 5 8 38 37 74 64 36 27 97 79 135 115 88 83 224
188 292 226 145 81 355 234 404 295 121 149 253 381 372 654 41 94 99 220 129
280 30 61 70 155 88 210 18 55 58 150 90 210 32 61 68 142 80 180 20 65 44
122 134 319 20 43 36 90 36 105 0 15 4 31 9 37 10 10 22 334 24 679 l2 220
-26 3 c-15 2 -35 12 -45 23 -11 12 -30 19 -52 19 -19 0 -52 5 -73 11 l-38 12
-4 126 c-3 69 -9 149 -15 176 -6 28 -18 92 -26 143 -9 51 -21 104 -26 118 -6
14 -10 61 -10 104 0 43 -4 82 -10 85 -5 3 -10 17 -10 30 0 18 -11 29 -47 48
-27 13 -84 45 -128 71 -44 25 -98 51 -120 56 -146 37 -522 196 -710 300 -449
250 -831 427 -1275 593 -25 9 -61 27 -80 39 -61 38 -238 106 -384 147 -144 41
-524 112 -698 131 -152 16 -801 12 -863 -6z"/>
</g>
</svg>
